<svg width="161" height="90" viewBox="0 0 161 90" fill="none" xmlns="http://www.w3.org/2000/svg">
<g opacity="0.5">
<path d="M28.752 56.5425H51.837V33.4575H28.752V56.5425ZM47.3937 42.7788H42.5157V37.9008H47.3937V42.7788ZM33.1944 37.9008H38.0751V47.2212H47.3937V52.0992H33.1944V37.9008ZM66.8696 33.4575C64.5868 33.4575 62.3551 34.1345 60.457 35.4028C58.5588 36.6711 57.0794 38.4738 56.2058 40.5829C55.3321 42.692 55.1036 45.0128 55.5489 47.2519C55.9943 49.4909 57.0936 51.5476 58.7079 53.1618C60.3221 54.776 62.3788 55.8754 64.6178 56.3207C66.8568 56.7661 69.1777 56.5375 71.2868 55.6639C73.3959 54.7903 75.1986 53.3108 76.4669 51.4127C77.7352 49.5145 78.4122 47.2829 78.4122 45C78.4086 41.9399 77.1913 39.0061 75.0275 36.8422C72.8636 34.6783 69.9298 33.4611 66.8696 33.4575V33.4575ZM66.8696 52.0992C65.4656 52.0992 64.093 51.6829 62.9255 50.9028C61.7581 50.1227 60.8482 49.014 60.3108 47.7168C59.7735 46.4196 59.6329 44.9921 59.9069 43.615C60.1808 42.2379 60.8569 40.973 61.8498 39.9801C62.8426 38.9873 64.1076 38.3112 65.4847 38.0372C66.8618 37.7633 68.2892 37.9039 69.5864 38.4412C70.8836 38.9785 71.9923 39.8885 72.7724 41.0559C73.5525 42.2234 73.9688 43.5959 73.9688 45C73.966 46.882 73.2171 48.686 71.8864 50.0168C70.5557 51.3475 68.7516 52.0964 66.8696 52.0992V52.0992ZM119.717 33.4575C117.434 33.4573 115.202 34.1341 113.304 35.4023C111.406 36.6705 109.926 38.4732 109.052 40.5823C108.178 42.6914 107.95 45.0122 108.395 47.2513C108.84 49.4904 109.94 51.5471 111.554 53.1615C113.168 54.7758 115.225 55.8752 117.464 56.3207C119.703 56.7661 122.024 56.5376 124.133 55.664C126.242 54.7904 128.045 53.311 129.313 51.4128C130.581 49.5146 131.258 47.2829 131.258 45C131.255 41.94 130.038 39.0063 127.874 36.8425C125.71 34.6787 122.777 33.4613 119.717 33.4575V33.4575ZM119.717 52.0992C118.313 52.0994 116.94 51.6832 115.772 50.9032C114.605 50.1233 113.695 49.0146 113.157 47.7174C112.62 46.4202 112.479 44.9928 112.753 43.6156C113.027 42.2384 113.703 40.9734 114.696 39.9804C115.688 38.9875 116.953 38.3113 118.331 38.0373C119.708 37.7633 121.135 37.9038 122.432 38.4411C123.73 38.9784 124.838 39.8883 125.619 41.0558C126.399 42.2233 126.815 43.5959 126.815 45C126.812 46.8818 126.063 48.6857 124.733 50.0164C123.402 51.3472 121.599 52.0961 119.717 52.0992V52.0992ZM93.2927 33.4575C91.0099 33.4575 88.7782 34.1345 86.8801 35.4028C84.9819 36.6711 83.5025 38.4738 82.6289 40.5829C81.7552 42.692 81.5267 45.0128 81.972 47.2519C82.4174 49.4909 83.5167 51.5476 85.131 53.1618C86.7452 54.776 88.8019 55.8754 91.0409 56.3207C93.2799 56.7661 95.6008 56.5375 97.7099 55.6639C99.819 54.7903 101.622 53.3108 102.89 51.4127C104.158 49.5145 104.835 47.2829 104.835 45C104.832 41.9399 103.614 39.0061 101.451 36.8422C99.2867 34.6783 96.3529 33.4611 93.2927 33.4575ZM93.2927 52.0992C91.9846 52.0999 90.7017 51.7391 89.5856 51.0566C88.4695 50.3741 87.5638 49.3966 86.9682 48.2318C86.3727 47.067 86.1106 45.7604 86.2109 44.456C86.3111 43.1517 86.7698 41.9004 87.5363 40.8403C88.3028 39.7803 89.3473 38.9526 90.5545 38.4487C91.7618 37.9447 93.0848 37.7842 94.3775 37.9847C95.6702 38.1853 96.8824 38.7391 97.8802 39.5851C98.878 40.4311 99.6226 41.5363 100.032 42.7788H93.2927V47.2212H100.032C99.5632 48.639 98.6599 49.8732 97.4503 50.7488C96.2406 51.6243 94.786 52.0968 93.2927 52.0992V52.0992Z" fill="#0D0E10"/>
</g>
</svg>
